<svg xmlns="http://www.w3.org/2000/svg" xmlns:xlink="http://www.w3.org/1999/xlink" width="500" zoomAndPan="magnify" viewBox="0 0 375 374.999991" height="500" preserveAspectRatio="xMidYMid meet" version="1.0"><defs><g/><clipPath id="1a97971996"><path d="M 131.414062 78.535156 L 243.914062 78.535156 L 243.914062 216.515625 L 131.414062 216.515625 Z M 131.414062 78.535156 " clip-rule="nonzero"/></clipPath></defs><g fill="#1c1d33" fill-opacity="1"><g transform="translate(66.053507, 262.783063)"><g><path d="M 1.789062 0 L 24.539062 0 L 24.539062 -6.132812 L 10.605469 -6.132812 L 24.195312 -24.921875 L 24.195312 -29.820312 L 2.257812 -29.820312 L 2.257812 -23.6875 L 15.421875 -23.6875 L 1.789062 -4.898438 Z M 1.789062 0 "/></g></g></g><g fill="#1c1d33" fill-opacity="1"><g transform="translate(91.100806, 262.783063)"><g><path d="M 13.800781 0.597656 C 19.296875 0.597656 23.644531 -2.214844 25.601562 -6.945312 L 19.042969 -6.945312 C 17.976562 -5.453125 16.058594 -4.601562 13.929688 -4.601562 C 10.992188 -4.601562 8.691406 -6.261719 8.09375 -9.328125 L 26.027344 -9.328125 C 26.410156 -17.507812 21.554688 -22.960938 13.886719 -22.960938 C 6.644531 -22.960938 1.660156 -18.148438 1.660156 -11.203125 C 1.660156 -4.21875 6.601562 0.597656 13.800781 0.597656 Z M 8.136719 -13.417969 C 8.859375 -16.144531 11.074219 -17.808594 13.929688 -17.808594 C 16.914062 -17.808594 19.042969 -16.144531 19.765625 -13.417969 Z M 8.136719 -13.417969 "/></g></g></g><g fill="#1c1d33" fill-opacity="1"><g transform="translate(117.468627, 262.783063)"><g><path d="M 3.238281 0 L 9.710938 0 L 9.710938 -9.882812 C 9.710938 -14.695312 11.96875 -16.484375 15.675781 -16.484375 L 18.148438 -16.484375 L 18.148438 -22.363281 L 15.71875 -22.363281 C 12.4375 -22.363281 10.351562 -21.46875 8.902344 -19.382812 L 8.050781 -22.363281 L 3.238281 -22.363281 Z M 3.238281 0 "/></g></g></g><g fill="#1c1d33" fill-opacity="1"><g transform="translate(135.785506, 262.783063)"><g><path d="M 14.226562 0.597656 C 21.640625 0.597656 26.753906 -4.21875 26.753906 -11.203125 C 26.753906 -18.148438 21.640625 -22.960938 14.226562 -22.960938 C 6.773438 -22.960938 1.660156 -18.148438 1.660156 -11.203125 C 1.660156 -4.21875 6.773438 0.597656 14.226562 0.597656 Z M 8.050781 -11.203125 C 8.050781 -14.867188 10.605469 -17.421875 14.226562 -17.421875 C 17.847656 -17.421875 20.363281 -14.867188 20.363281 -11.203125 C 20.363281 -7.539062 17.847656 -4.984375 14.226562 -4.984375 C 10.605469 -4.984375 8.050781 -7.539062 8.050781 -11.203125 Z M 8.050781 -11.203125 "/></g></g></g><g fill="#1c1d33" fill-opacity="1"><g transform="translate(162.920082, 262.783063)"><g/></g></g><g fill="#1c1d33" fill-opacity="1"><g transform="translate(171.652507, 262.783063)"><g><path d="M 17.722656 0.597656 C 27.050781 0.597656 33.652344 -5.792969 33.652344 -14.910156 C 33.652344 -24.027344 27.050781 -30.417969 17.722656 -30.417969 C 8.390625 -30.417969 1.832031 -24.027344 1.832031 -14.910156 C 1.832031 -5.792969 8.390625 0.597656 17.722656 0.597656 Z M 8.734375 -14.910156 C 8.734375 -20.277344 12.4375 -23.984375 17.722656 -23.984375 C 23.046875 -23.984375 26.710938 -20.277344 26.710938 -14.910156 C 26.710938 -9.542969 23.046875 -5.835938 17.722656 -5.835938 C 12.4375 -5.835938 8.734375 -9.542969 8.734375 -14.910156 Z M 8.734375 -14.910156 "/></g></g></g><g fill="#1c1d33" fill-opacity="1"><g transform="translate(205.858277, 262.783063)"><g><path d="M 3.238281 0 L 9.710938 0 L 9.710938 -11.714844 C 9.710938 -15.25 11.671875 -17.421875 14.65625 -17.421875 C 17.421875 -17.421875 19.085938 -15.464844 19.085938 -12.183594 L 19.085938 0 L 25.558594 0 L 25.558594 -12.863281 C 25.558594 -19.042969 22.023438 -22.960938 16.1875 -22.960938 C 13.207031 -22.960938 10.523438 -21.9375 8.734375 -19.851562 L 8.050781 -22.363281 L 3.238281 -22.363281 Z M 3.238281 0 "/></g></g></g><g fill="#1c1d33" fill-opacity="1"><g transform="translate(232.950263, 262.783063)"><g><path d="M 13.800781 0.597656 C 19.296875 0.597656 23.644531 -2.214844 25.601562 -6.945312 L 19.042969 -6.945312 C 17.976562 -5.453125 16.058594 -4.601562 13.929688 -4.601562 C 10.992188 -4.601562 8.691406 -6.261719 8.09375 -9.328125 L 26.027344 -9.328125 C 26.410156 -17.507812 21.554688 -22.960938 13.886719 -22.960938 C 6.644531 -22.960938 1.660156 -18.148438 1.660156 -11.203125 C 1.660156 -4.21875 6.601562 0.597656 13.800781 0.597656 Z M 8.136719 -13.417969 C 8.859375 -16.144531 11.074219 -17.808594 13.929688 -17.808594 C 16.914062 -17.808594 19.042969 -16.144531 19.765625 -13.417969 Z M 8.136719 -13.417969 "/></g></g></g><g fill="#1c1d33" fill-opacity="1"><g transform="translate(259.318089, 262.783063)"><g/></g></g><g fill="#1c1d33" fill-opacity="1"><g transform="translate(268.050503, 262.783063)"><g><path d="M 3.578125 0 L 10.351562 0 L 10.351562 -29.820312 L 3.578125 -29.820312 Z M 3.578125 0 "/></g></g></g><g fill="#1c1d33" fill-opacity="1"><g transform="translate(280.7019, 262.783063)"><g><path d="M 10.734375 0 L 17.507812 0 L 17.507812 -23.472656 L 26.964844 -23.472656 L 26.964844 -29.820312 L 1.277344 -29.820312 L 1.277344 -23.472656 L 10.734375 -23.472656 Z M 10.734375 0 "/></g></g></g><g fill="#1c1d33" fill-opacity="1"><g transform="translate(69.986259, 281.467383)"><g><path d="M 6.59375 -6.625 L 3.65625 0 L 2.96875 0 L 0.03125 -6.625 L 0.78125 -6.625 L 3.328125 -0.875 L 5.875 -6.625 Z M 6.59375 -6.625 "/></g></g></g><g fill="#1c1d33" fill-opacity="1"><g transform="translate(82.274208, 281.467383)"><g><path d="M 1.078125 -6.625 L 1.78125 -6.625 L 1.78125 0 L 1.078125 0 Z M 1.078125 -6.625 "/></g></g></g><g fill="#1c1d33" fill-opacity="1"><g transform="translate(90.81328, 281.467383)"><g/></g></g><g fill="#1c1d33" fill-opacity="1"><g transform="translate(98.973682, 281.467383)"><g><path d="M 2.90625 0.0625 C 2.414062 0.0625 1.941406 -0.015625 1.484375 -0.171875 C 1.035156 -0.335938 0.6875 -0.550781 0.4375 -0.8125 L 0.71875 -1.34375 C 0.957031 -1.101562 1.273438 -0.910156 1.671875 -0.765625 C 2.066406 -0.617188 2.476562 -0.546875 2.90625 -0.546875 C 3.5 -0.546875 3.941406 -0.648438 4.234375 -0.859375 C 4.535156 -1.078125 4.6875 -1.363281 4.6875 -1.71875 C 4.6875 -1.976562 4.601562 -2.1875 4.4375 -2.34375 C 4.28125 -2.5 4.082031 -2.617188 3.84375 -2.703125 C 3.613281 -2.796875 3.289062 -2.890625 2.875 -2.984375 C 2.375 -3.117188 1.972656 -3.242188 1.671875 -3.359375 C 1.378906 -3.472656 1.128906 -3.648438 0.921875 -3.890625 C 0.710938 -4.128906 0.609375 -4.453125 0.609375 -4.859375 C 0.609375 -5.203125 0.695312 -5.507812 0.875 -5.78125 C 1.050781 -6.050781 1.320312 -6.269531 1.6875 -6.4375 C 2.050781 -6.601562 2.503906 -6.6875 3.046875 -6.6875 C 3.421875 -6.6875 3.789062 -6.632812 4.15625 -6.53125 C 4.519531 -6.425781 4.835938 -6.28125 5.109375 -6.09375 L 4.859375 -5.546875 C 4.585938 -5.722656 4.289062 -5.859375 3.96875 -5.953125 C 3.65625 -6.046875 3.347656 -6.09375 3.046875 -6.09375 C 2.460938 -6.09375 2.023438 -5.976562 1.734375 -5.75 C 1.441406 -5.53125 1.296875 -5.242188 1.296875 -4.890625 C 1.296875 -4.617188 1.375 -4.398438 1.53125 -4.234375 C 1.695312 -4.078125 1.898438 -3.957031 2.140625 -3.875 C 2.390625 -3.789062 2.71875 -3.695312 3.125 -3.59375 C 3.613281 -3.476562 4.003906 -3.359375 4.296875 -3.234375 C 4.597656 -3.117188 4.851562 -2.941406 5.0625 -2.703125 C 5.269531 -2.472656 5.375 -2.15625 5.375 -1.75 C 5.375 -1.414062 5.285156 -1.109375 5.109375 -0.828125 C 4.929688 -0.554688 4.65625 -0.335938 4.28125 -0.171875 C 3.90625 -0.015625 3.445312 0.0625 2.90625 0.0625 Z M 2.90625 0.0625 "/></g></g></g><g fill="#1c1d33" fill-opacity="1"><g transform="translate(110.475885, 281.467383)"><g><path d="M 3.140625 -3.109375 L 1.78125 -1.75 L 1.78125 0 L 1.078125 0 L 1.078125 -6.625 L 1.78125 -6.625 L 1.78125 -2.625 L 5.671875 -6.625 L 6.484375 -6.625 L 3.609375 -3.625 L 6.671875 0 L 5.84375 0 Z M 3.140625 -3.109375 "/></g></g></g><g fill="#1c1d33" fill-opacity="1"><g transform="translate(122.886907, 281.467383)"><g><path d="M 5.234375 -1.765625 L 1.546875 -1.765625 L 0.75 0 L 0.015625 0 L 3.046875 -6.625 L 3.734375 -6.625 L 6.765625 0 L 6.03125 0 Z M 4.984375 -2.34375 L 3.390625 -5.90625 L 1.796875 -2.34375 Z M 4.984375 -2.34375 "/></g></g></g><g fill="#1c1d33" fill-opacity="1"><g transform="translate(135.354732, 281.467383)"><g><path d="M 3.5625 -6.625 C 4.40625 -6.625 5.066406 -6.421875 5.546875 -6.015625 C 6.023438 -5.617188 6.265625 -5.066406 6.265625 -4.359375 C 6.265625 -3.648438 6.023438 -3.09375 5.546875 -2.6875 C 5.066406 -2.289062 4.40625 -2.09375 3.5625 -2.09375 L 1.78125 -2.09375 L 1.78125 0 L 1.078125 0 L 1.078125 -6.625 Z M 3.546875 -2.703125 C 4.203125 -2.703125 4.703125 -2.84375 5.046875 -3.125 C 5.390625 -3.414062 5.5625 -3.828125 5.5625 -4.359375 C 5.5625 -4.890625 5.390625 -5.296875 5.046875 -5.578125 C 4.703125 -5.867188 4.203125 -6.015625 3.546875 -6.015625 L 1.78125 -6.015625 L 1.78125 -2.703125 Z M 3.546875 -2.703125 "/></g></g></g><g fill="#1c1d33" fill-opacity="1"><g transform="translate(147.832018, 281.467383)"><g><path d="M 5.234375 -1.765625 L 1.546875 -1.765625 L 0.75 0 L 0.015625 0 L 3.046875 -6.625 L 3.734375 -6.625 L 6.765625 0 L 6.03125 0 Z M 4.984375 -2.34375 L 3.390625 -5.90625 L 1.796875 -2.34375 Z M 4.984375 -2.34375 "/></g></g></g><g fill="#1c1d33" fill-opacity="1"><g transform="translate(160.299842, 281.467383)"><g><path d="M 5.609375 0 L 4.09375 -2.125 C 3.914062 -2.113281 3.738281 -2.109375 3.5625 -2.109375 L 1.78125 -2.109375 L 1.78125 0 L 1.078125 0 L 1.078125 -6.625 L 3.5625 -6.625 C 4.40625 -6.625 5.066406 -6.421875 5.546875 -6.015625 C 6.023438 -5.617188 6.265625 -5.066406 6.265625 -4.359375 C 6.265625 -3.835938 6.132812 -3.398438 5.875 -3.046875 C 5.613281 -2.691406 5.238281 -2.429688 4.75 -2.265625 L 6.375 0 Z M 3.546875 -2.703125 C 4.203125 -2.703125 4.703125 -2.84375 5.046875 -3.125 C 5.390625 -3.414062 5.5625 -3.828125 5.5625 -4.359375 C 5.5625 -4.890625 5.390625 -5.296875 5.046875 -5.578125 C 4.703125 -5.867188 4.203125 -6.015625 3.546875 -6.015625 L 1.78125 -6.015625 L 1.78125 -2.703125 Z M 3.546875 -2.703125 "/></g></g></g><g fill="#1c1d33" fill-opacity="1"><g transform="translate(172.824461, 281.467383)"><g/></g></g><g fill="#1c1d33" fill-opacity="1"><g transform="translate(180.984862, 281.467383)"><g><path d="M 1.078125 -6.625 L 3.78125 -6.625 C 4.476562 -6.625 5.09375 -6.484375 5.625 -6.203125 C 6.164062 -5.921875 6.582031 -5.53125 6.875 -5.03125 C 7.175781 -4.53125 7.328125 -3.957031 7.328125 -3.3125 C 7.328125 -2.664062 7.175781 -2.09375 6.875 -1.59375 C 6.582031 -1.09375 6.164062 -0.703125 5.625 -0.421875 C 5.09375 -0.140625 4.476562 0 3.78125 0 L 1.078125 0 Z M 3.734375 -0.609375 C 4.316406 -0.609375 4.828125 -0.722656 5.265625 -0.953125 C 5.703125 -1.179688 6.039062 -1.5 6.28125 -1.90625 C 6.519531 -2.3125 6.640625 -2.78125 6.640625 -3.3125 C 6.640625 -3.84375 6.519531 -4.3125 6.28125 -4.71875 C 6.039062 -5.125 5.703125 -5.441406 5.265625 -5.671875 C 4.828125 -5.898438 4.316406 -6.015625 3.734375 -6.015625 L 1.78125 -6.015625 L 1.78125 -0.609375 Z M 3.734375 -0.609375 "/></g></g></g><g fill="#1c1d33" fill-opacity="1"><g transform="translate(194.484567, 281.467383)"><g><path d="M 1.078125 -6.625 L 1.78125 -6.625 L 1.78125 0 L 1.078125 0 Z M 1.078125 -6.625 "/></g></g></g><g fill="#1c1d33" fill-opacity="1"><g transform="translate(203.023637, 281.467383)"><g><path d="M 6.625 -6.625 L 6.625 0 L 6.046875 0 L 1.78125 -5.375 L 1.78125 0 L 1.078125 0 L 1.078125 -6.625 L 1.65625 -6.625 L 5.921875 -1.25 L 5.921875 -6.625 Z M 6.625 -6.625 "/></g></g></g><g fill="#1c1d33" fill-opacity="1"><g transform="translate(216.400281, 281.467383)"><g/></g></g><g fill="#1c1d33" fill-opacity="1"><g transform="translate(224.560682, 281.467383)"><g><path d="M 6.625 -6.625 L 6.625 0 L 5.921875 0 L 5.921875 -3.0625 L 1.78125 -3.0625 L 1.78125 0 L 1.078125 0 L 1.078125 -6.625 L 1.78125 -6.625 L 1.78125 -3.671875 L 5.921875 -3.671875 L 5.921875 -6.625 Z M 6.625 -6.625 "/></g></g></g><g fill="#1c1d33" fill-opacity="1"><g transform="translate(237.937326, 281.467383)"><g><path d="M 5.765625 -0.609375 L 5.765625 0 L 1.078125 0 L 1.078125 -6.625 L 5.625 -6.625 L 5.625 -6.015625 L 1.78125 -6.015625 L 1.78125 -3.671875 L 5.203125 -3.671875 L 5.203125 -3.0625 L 1.78125 -3.0625 L 1.78125 -0.609375 Z M 5.765625 -0.609375 "/></g></g></g><g fill="#1c1d33" fill-opacity="1"><g transform="translate(249.950741, 281.467383)"><g><path d="M 7.96875 -6.625 L 7.96875 0 L 7.296875 0 L 7.296875 -5.296875 L 4.6875 -0.84375 L 4.359375 -0.84375 L 1.75 -5.28125 L 1.75 0 L 1.078125 0 L 1.078125 -6.625 L 1.65625 -6.625 L 4.53125 -1.71875 L 7.390625 -6.625 Z M 7.96875 -6.625 "/></g></g></g><g fill="#1c1d33" fill-opacity="1"><g transform="translate(264.671678, 281.467383)"><g><path d="M 2.90625 0.0625 C 2.414062 0.0625 1.941406 -0.015625 1.484375 -0.171875 C 1.035156 -0.335938 0.6875 -0.550781 0.4375 -0.8125 L 0.71875 -1.34375 C 0.957031 -1.101562 1.273438 -0.910156 1.671875 -0.765625 C 2.066406 -0.617188 2.476562 -0.546875 2.90625 -0.546875 C 3.5 -0.546875 3.941406 -0.648438 4.234375 -0.859375 C 4.535156 -1.078125 4.6875 -1.363281 4.6875 -1.71875 C 4.6875 -1.976562 4.601562 -2.1875 4.4375 -2.34375 C 4.28125 -2.5 4.082031 -2.617188 3.84375 -2.703125 C 3.613281 -2.796875 3.289062 -2.890625 2.875 -2.984375 C 2.375 -3.117188 1.972656 -3.242188 1.671875 -3.359375 C 1.378906 -3.472656 1.128906 -3.648438 0.921875 -3.890625 C 0.710938 -4.128906 0.609375 -4.453125 0.609375 -4.859375 C 0.609375 -5.203125 0.695312 -5.507812 0.875 -5.78125 C 1.050781 -6.050781 1.320312 -6.269531 1.6875 -6.4375 C 2.050781 -6.601562 2.503906 -6.6875 3.046875 -6.6875 C 3.421875 -6.6875 3.789062 -6.632812 4.15625 -6.53125 C 4.519531 -6.425781 4.835938 -6.28125 5.109375 -6.09375 L 4.859375 -5.546875 C 4.585938 -5.722656 4.289062 -5.859375 3.96875 -5.953125 C 3.65625 -6.046875 3.347656 -6.09375 3.046875 -6.09375 C 2.460938 -6.09375 2.023438 -5.976562 1.734375 -5.75 C 1.441406 -5.53125 1.296875 -5.242188 1.296875 -4.890625 C 1.296875 -4.617188 1.375 -4.398438 1.53125 -4.234375 C 1.695312 -4.078125 1.898438 -3.957031 2.140625 -3.875 C 2.390625 -3.789062 2.71875 -3.695312 3.125 -3.59375 C 3.613281 -3.476562 4.003906 -3.359375 4.296875 -3.234375 C 4.597656 -3.117188 4.851562 -2.941406 5.0625 -2.703125 C 5.269531 -2.472656 5.375 -2.15625 5.375 -1.75 C 5.375 -1.414062 5.285156 -1.109375 5.109375 -0.828125 C 4.929688 -0.554688 4.65625 -0.335938 4.28125 -0.171875 C 3.90625 -0.015625 3.445312 0.0625 2.90625 0.0625 Z M 2.90625 0.0625 "/></g></g></g><g fill="#1c1d33" fill-opacity="1"><g transform="translate(276.173878, 281.467383)"><g><path d="M 1.078125 -6.625 L 1.78125 -6.625 L 1.78125 0 L 1.078125 0 Z M 1.078125 -6.625 "/></g></g></g><g fill="#1c1d33" fill-opacity="1"><g transform="translate(284.71296, 281.467383)"><g><path d="M 1.078125 -6.625 L 3.78125 -6.625 C 4.476562 -6.625 5.09375 -6.484375 5.625 -6.203125 C 6.164062 -5.921875 6.582031 -5.53125 6.875 -5.03125 C 7.175781 -4.53125 7.328125 -3.957031 7.328125 -3.3125 C 7.328125 -2.664062 7.175781 -2.09375 6.875 -1.59375 C 6.582031 -1.09375 6.164062 -0.703125 5.625 -0.421875 C 5.09375 -0.140625 4.476562 0 3.78125 0 L 1.078125 0 Z M 3.734375 -0.609375 C 4.316406 -0.609375 4.828125 -0.722656 5.265625 -0.953125 C 5.703125 -1.179688 6.039062 -1.5 6.28125 -1.90625 C 6.519531 -2.3125 6.640625 -2.78125 6.640625 -3.3125 C 6.640625 -3.84375 6.519531 -4.3125 6.28125 -4.71875 C 6.039062 -5.125 5.703125 -5.441406 5.265625 -5.671875 C 4.828125 -5.898438 4.316406 -6.015625 3.734375 -6.015625 L 1.78125 -6.015625 L 1.78125 -0.609375 Z M 3.734375 -0.609375 "/></g></g></g><g fill="#1c1d33" fill-opacity="1"><g transform="translate(298.212665, 281.467383)"><g><path d="M 5.234375 -1.765625 L 1.546875 -1.765625 L 0.75 0 L 0.015625 0 L 3.046875 -6.625 L 3.734375 -6.625 L 6.765625 0 L 6.03125 0 Z M 4.984375 -2.34375 L 3.390625 -5.90625 L 1.796875 -2.34375 Z M 4.984375 -2.34375 "/></g></g></g><g clip-path="url(#1a97971996)"><path fill="#a60000" d="M 147.480469 183.324219 L 147.480469 175.886719 L 154.929688 175.886719 L 154.929688 183.324219 Z M 162.375 183.324219 L 162.375 175.886719 L 169.824219 175.886719 L 169.824219 183.324219 Z M 233.238281 196.167969 L 227.832031 196.167969 L 227.832031 190.761719 L 220.382812 190.761719 L 220.382812 175.886719 L 227.832031 175.886719 L 227.832031 190.761719 L 233.238281 190.761719 Z M 198.042969 216.453125 L 192.632812 216.453125 L 192.632812 211.046875 L 198.042969 211.046875 L 198.042969 203.609375 L 205.488281 203.609375 L 205.488281 198.203125 L 198.042969 198.203125 L 198.042969 190.761719 L 205.488281 190.761719 L 205.488281 175.886719 L 212.9375 175.886719 L 212.9375 190.761719 L 205.488281 190.761719 L 205.488281 198.203125 L 210.902344 198.203125 L 210.902344 203.609375 L 218.347656 203.609375 L 218.347656 211.046875 L 210.902344 211.046875 L 210.902344 203.609375 L 205.488281 203.609375 L 205.488281 211.046875 L 198.042969 211.046875 Z M 243.90625 175.886719 L 187.65625 78.558594 L 131.40625 175.886719 L 140.035156 175.886719 L 140.035156 183.324219 L 147.480469 183.324219 L 147.480469 190.761719 L 142.070312 190.761719 L 142.070312 196.167969 L 147.480469 196.167969 L 147.480469 190.761719 L 154.929688 190.761719 L 154.929688 183.324219 L 162.375 183.324219 L 162.375 190.765625 L 169.824219 190.765625 L 169.824219 198.203125 L 164.410156 198.203125 L 164.410156 203.609375 L 156.960938 203.609375 L 156.960938 211.046875 L 164.410156 211.046875 L 164.410156 203.609375 L 169.824219 203.609375 L 169.824219 211.046875 L 177.269531 211.046875 L 177.269531 216.453125 L 182.679688 216.453125 L 182.679688 211.046875 L 177.269531 211.046875 L 177.269531 203.609375 L 169.824219 203.609375 L 169.824219 198.203125 L 177.269531 198.203125 L 177.269531 190.761719 L 169.824219 190.761719 L 169.824219 183.324219 L 177.269531 183.324219 L 177.269531 151.15625 L 166.882812 151.15625 L 187.65625 125.089844 L 208.429688 151.15625 L 198.042969 151.15625 L 198.042969 183.324219 L 235.277344 183.324219 L 235.277344 175.886719 Z M 243.90625 175.886719 " fill-opacity="1" fill-rule="nonzero"/></g></svg>